<?xml version="1.0" encoding="UTF-8" standalone="no"?>
<!DOCTYPE svg PUBLIC "-//W3C//DTD SVG 1.1//EN" "http://www.w3.org/Graphics/SVG/1.1/DTD/svg11.dtd">
<svg width="100%" height="100%" viewBox="0 0 500 500" version="1.1" xmlns="http://www.w3.org/2000/svg" xmlns:xlink="http://www.w3.org/1999/xlink" xml:space="preserve" xmlns:serif="http://www.serif.com/" style="fill-rule:evenodd;clip-rule:evenodd;stroke-linecap:round;stroke-linejoin:round;stroke-miterlimit:1.5;">
    <g id="Logo" transform="matrix(1.0468,0,0,1.0468,-13.7568,-13.7238)">
        <g transform="matrix(1,0,0,1,-9,6)">
            <circle cx="266.018" cy="242.835" r="228.152" style="fill:rgb(77,77,77);stroke:rgb(38,38,38);stroke-width:5px;"/>
        </g>
        <g transform="matrix(1,0,0,1,3.50455,0.761132)">
            <path d="M47.574,105.24L308.567,61.143C308.567,61.143 341.549,53.086 342.992,89.667C344.435,126.247 327.191,128.683 306.987,131.719C286.783,134.756 164.777,155.263 164.777,155.263C164.777,155.263 169.612,229.471 173.122,253.63C176.632,277.79 184.011,319.681 188.165,333.195C192.319,346.71 195.135,357.476 200.916,357.29C206.696,357.104 212.522,347.314 216.116,332.452C219.71,317.589 237.765,256.15 241.303,245.269C244.84,234.388 252.042,211.174 253.521,207.588C256.301,200.853 257.636,190.327 280.305,194.013C302.974,197.7 301.204,196.695 305.797,199.485C310.389,202.275 318.913,211.97 331.703,239.443C344.262,266.419 345.515,270.929 349.672,280.517C353.595,289.566 360.664,308.087 365.263,308.015C369.861,307.943 372.86,303.021 376.245,289.158C379.631,275.295 393.628,225.104 396.958,197.979C400.288,170.853 401.307,162.594 401.938,159.582C404.55,147.108 408.58,131.838 424.618,129.49C442.87,126.819 455.239,119.777 460.446,152.513C463.714,173.062 458.172,196.697 454.386,216.748C450.6,236.798 432.213,331.372 425.203,355.986C418.193,380.6 412.548,394.511 404.802,401.436C397.056,408.361 382.503,414.693 362.705,401.472C342.907,388.251 337.26,374.761 327.906,357.509C318.551,340.258 291.551,293.221 291.551,293.221C291.551,293.221 269.859,343.172 244.06,413.644C238,430.196 228.394,450.732 225.879,456.539C224.291,460.205 220.165,473.809 194.89,471.654C169.614,469.499 157.089,445.381 143.195,398.068C129.301,350.754 124.401,317.333 122.798,309.025C121.196,300.717 97.545,165.973 97.545,165.973C97.545,165.973 54.244,173.375 46.353,174.315C38.461,175.255 17.172,175.942 15.472,147.371C13.771,118.801 30.068,110.259 36.61,108.427C43.153,106.594 47.574,105.24 47.574,105.24Z" style="fill:rgb(235,235,235);stroke:rgb(38,38,38);stroke-width:5px;"/>
        </g>
    </g>
</svg>
